<svg width="366" height="11" viewBox="0 0 366 11" fill="none" xmlns="http://www.w3.org/2000/svg">
<path fill-rule="evenodd" clip-rule="evenodd" d="M7.06068 1.59274C7.8607 0.526828 9.4598 0.526826 10.2598 1.59274L13.9904 6.56312L10.6602 11H0L7.06068 1.59274ZM24.3205 6.12328L20.9201 1.59274C20.1201 0.526826 18.521 0.526828 17.7209 1.59274L13.9904 6.56312L17.3205 11H20.6602L24.3205 6.12328ZM27.9808 11H37.9808L30.9201 1.59274C30.1201 0.526826 28.521 0.526828 27.7209 1.59274L24.3205 6.12328L27.9808 11ZM36.7209 1.59274C37.521 0.526828 39.1201 0.526826 39.9201 1.59274L43.6506 6.56312L40.3205 11H29.6602L36.7209 1.59274ZM53.9808 6.12328L50.5803 1.59274C49.7803 0.526826 48.1812 0.526828 47.3812 1.59274L43.6506 6.56312L46.9808 11H50.3205L53.9808 6.12328ZM57.641 11H67.641L60.5803 1.59274C59.7803 0.526826 58.1812 0.526828 57.3812 1.59274L53.9808 6.12328L57.641 11ZM68.0607 1.59274C68.8607 0.526828 70.4598 0.526826 71.2598 1.59274L74.9904 6.56312L71.6602 11H61L68.0607 1.59274ZM85.3205 6.12328L81.9201 1.59274C81.1201 0.526826 79.521 0.526828 78.7209 1.59274L74.9904 6.56312L78.3205 11H81.6602L85.3205 6.12328ZM88.9808 11H98.9808L91.9201 1.59274C91.1201 0.526826 89.521 0.526828 88.7209 1.59274L85.3205 6.12328L88.9808 11ZM97.7209 1.59274C98.521 0.526828 100.12 0.526826 100.92 1.59274L104.651 6.56312L101.32 11H90.6602L97.7209 1.59274ZM114.981 6.12328L111.58 1.59274C110.78 0.526826 109.181 0.526828 108.381 1.59274L104.651 6.56312L107.981 11H111.32L114.981 6.12328ZM118.641 11H128.641L121.58 1.59274C120.78 0.526826 119.181 0.526828 118.381 1.59274L114.981 6.12328L118.641 11ZM127.061 1.59274C127.861 0.526828 129.46 0.526826 130.26 1.59274L133.99 6.56312L130.66 11H120L127.061 1.59274ZM144.321 6.12328L140.92 1.59274C140.12 0.526826 138.521 0.526828 137.721 1.59274L133.99 6.56312L137.321 11H140.66L144.321 6.12328ZM147.981 11H157.981L150.92 1.59274C150.12 0.526826 148.521 0.526828 147.721 1.59274L144.321 6.12328L147.981 11ZM156.721 1.59274C157.521 0.526828 159.12 0.526826 159.92 1.59274L163.651 6.56312L160.32 11H149.66L156.721 1.59274ZM173.981 6.12328L170.58 1.59274C169.78 0.526826 168.181 0.526828 167.381 1.59274L163.651 6.56312L166.981 11H170.32L173.981 6.12328ZM177.641 11H187.641L180.58 1.59274C179.78 0.526826 178.181 0.526828 177.381 1.59274L173.981 6.12328L177.641 11ZM185.061 1.59274C185.861 0.526828 187.46 0.526826 188.26 1.59274L191.99 6.56312L188.66 11H178L185.061 1.59274ZM202.321 6.12328L198.92 1.59274C198.12 0.526826 196.521 0.526828 195.721 1.59274L191.99 6.56312L195.321 11H198.66L202.321 6.12328ZM205.981 11H215.981L208.92 1.59274C208.12 0.526826 206.521 0.526828 205.721 1.59274L202.321 6.12328L205.981 11ZM214.721 1.59274C215.521 0.526828 217.12 0.526826 217.92 1.59274L221.651 6.56312L218.32 11H207.66L214.721 1.59274ZM231.981 6.12328L228.58 1.59274C227.78 0.526826 226.181 0.526828 225.381 1.59274L221.651 6.56312L224.981 11H228.32L231.981 6.12328ZM235.641 11H245.641L238.58 1.59274C237.78 0.526826 236.181 0.526828 235.381 1.59274L231.981 6.12328L235.641 11ZM246.061 1.59274C246.861 0.526828 248.46 0.526826 249.26 1.59274L252.99 6.56312L249.66 11H239L246.061 1.59274ZM263.321 6.12328L259.92 1.59274C259.12 0.526826 257.521 0.526828 256.721 1.59274L252.99 6.56312L256.321 11H259.66L263.321 6.12328ZM266.981 11H276.981L269.92 1.59274C269.12 0.526826 267.521 0.526828 266.721 1.59274L263.321 6.12328L266.981 11ZM275.721 1.59274C276.521 0.526828 278.12 0.526826 278.92 1.59274L282.651 6.56312L279.32 11H268.66L275.721 1.59274ZM292.981 6.12328L289.58 1.59274C288.78 0.526826 287.181 0.526828 286.381 1.59274L282.651 6.56312L285.981 11H289.32L292.981 6.12328ZM296.641 11H306.641L299.58 1.59274C298.78 0.526826 297.181 0.526828 296.381 1.59274L292.981 6.12328L296.641 11ZM305.061 1.59274C305.861 0.526828 307.46 0.526826 308.26 1.59274L311.99 6.56312L308.66 11H298L305.061 1.59274ZM322.321 6.12328L318.92 1.59274C318.12 0.526826 316.521 0.526828 315.721 1.59274L311.99 6.56312L315.321 11H318.66L322.321 6.12328ZM325.981 11H335.981L328.92 1.59274C328.12 0.526826 326.521 0.526828 325.721 1.59274L322.321 6.12328L325.981 11ZM334.721 1.59274C335.521 0.526828 337.12 0.526826 337.92 1.59274L341.651 6.56312L338.32 11H327.66L334.721 1.59274ZM351.981 6.12328L348.58 1.59274C347.78 0.526826 346.181 0.526828 345.381 1.59274L341.651 6.56312L344.981 11H348.32L351.981 6.12328ZM355.641 11H365.641L358.58 1.59274C357.78 0.526826 356.181 0.526828 355.381 1.59274L351.981 6.12328L355.641 11Z" fill="#F8F9FA"/>
</svg>
