<svg width="58" height="58" viewBox="0 0 58 58" fill="none" xmlns="http://www.w3.org/2000/svg">
<path fill-rule="evenodd" clip-rule="evenodd" d="M58 0H0V10.3973H8.98622L9.27846 16.8995C10.4961 14.5129 12.1521 12.7108 14.2465 11.4932C16.3895 10.2755 18.7761 9.66668 21.4062 9.66668C24.1337 9.66668 26.5447 10.2999 28.639 11.5662C30.7821 12.8326 32.3407 14.659 33.3148 17.0456C34.4837 14.659 36.1884 12.8326 38.4289 11.5662C40.6694 10.2999 43.1046 9.66668 45.7348 9.66668C49.4851 9.66668 52.5779 10.8113 55.0132 13.1004C56.3908 14.37 57.3864 15.9466 58 17.8304V0ZM58 46.9266H48.7302V24.936C48.7302 22.4033 48.17 20.5524 47.0498 19.3835C45.9296 18.1659 44.3953 17.557 42.4471 17.557C40.1092 17.557 38.1854 18.4094 36.6755 20.1141C35.1656 21.8188 34.4107 24.2054 34.4107 27.2738V46.9266H24.4016V24.936C24.4016 22.4033 23.8415 20.5524 22.7213 19.3835C21.601 18.1659 20.0424 17.557 18.0455 17.557C15.8537 17.557 13.9542 18.4094 12.3469 20.1141C10.7883 21.7701 10.009 24.2541 10.009 27.5661V46.9266H0V58H58V46.9266Z" fill="#2A2B2B"/>
</svg>
