<svg width="24" height="24" viewBox="0 0 24 24" fill="none" xmlns="http://www.w3.org/2000/svg">
<rect width="24" height="24" fill="#2A2B2B"/>
<path d="M16.52 5C17.5467 5 18.3933 5.31333 19.06 5.94C19.74 6.56667 20.08 7.46667 20.08 8.64V15.2H17.34V9.18C17.34 8.48667 17.1867 7.98 16.88 7.66C16.5733 7.32667 16.1533 7.16 15.62 7.16C14.98 7.16 14.4533 7.39333 14.04 7.86C13.6267 8.32667 13.42 8.98 13.42 9.82V15.2H10.68V9.18C10.68 8.48667 10.5267 7.98 10.22 7.66C9.91333 7.32667 9.48667 7.16 8.94 7.16C8.34 7.16 7.82 7.39333 7.38 7.86C6.95333 8.31333 6.74 8.99333 6.74 9.9V15.2H4V5.2H4.6782C5.67494 5.2 6.49525 5.98426 6.54 6.98C6.87333 6.32667 7.32667 5.83333 7.9 5.5C8.48667 5.16667 9.14 5 9.86 5C10.6067 5 11.2667 5.17333 11.84 5.52C12.4267 5.86667 12.8533 6.36667 13.12 7.02C13.44 6.36667 13.9067 5.86667 14.52 5.52C15.1333 5.17333 15.8 5 16.52 5Z" fill="white"/>
<rect x="4" y="16.2" width="16.08" height="2" fill="white"/>
</svg>
