<svg width="24" height="24" viewBox="0 0 24 24" fill="none" xmlns="http://www.w3.org/2000/svg">
<rect width="24" height="24" fill="#2A2B2B"/>
<path d="M15.6775 6C16.553 6 17.2751 6.26722 17.8436 6.80166C18.4236 7.3361 18.7135 8.10365 18.7135 9.10431V14.6989H16.3768V9.56484C16.3768 8.97354 16.246 8.54144 15.9845 8.26853C15.7229 7.98426 15.3648 7.84212 14.9099 7.84212C14.3641 7.84212 13.9149 8.04111 13.5624 8.4391C13.2099 8.83709 13.0337 9.39427 13.0337 10.1107V14.6989H10.6969V9.56484C10.6969 8.97354 10.5662 8.54144 10.3046 8.26853C10.0431 7.98426 9.6792 7.84212 9.21299 7.84212C8.70129 7.84212 8.25782 8.04111 7.88257 8.4391C7.5187 8.82572 7.33676 9.40564 7.33676 10.1789V14.6989H5V6.17057H7.09797L7.16619 7.68861C7.45047 7.13142 7.83709 6.71069 8.32604 6.42642C8.82637 6.14214 9.38356 6 9.9976 6C10.6344 6 11.1972 6.14782 11.6862 6.44347C12.1865 6.73912 12.5504 7.16554 12.7778 7.72272C13.0507 7.16554 13.4487 6.73912 13.9718 6.44347C14.4949 6.14782 15.0634 6 15.6775 6Z" fill="white" stroke="#2A2B2B" stroke-width="0.369231"/>
<rect x="5" y="16.1538" width="13.8152" height="1.84615" fill="white" stroke="#2A2B2B" stroke-width="0.369231"/>
</svg>
